<svg width="34" height="38" viewBox="0 0 34 38" fill="none" xmlns="http://www.w3.org/2000/svg">
<g id="logo 1" clip-path="url(#clip0_21880_710)">
<g id="Group">
<path id="Vector" d="M33.481 4.38767L27.7088 14.5478C27.6547 14.6435 27.5761 14.7231 27.4812 14.7785C27.3862 14.8339 27.2782 14.8631 27.1682 14.8631C27.0582 14.8631 26.9502 14.8339 26.8552 14.7785C26.7602 14.7231 26.6816 14.6435 26.6276 14.5478L24.221 10.3109L20.8484 4.38767C20.6795 4.08977 20.5917 3.75284 20.5938 3.41047C20.5959 3.06811 20.6878 2.73228 20.8604 2.43648C21.033 2.14069 21.2802 1.89526 21.5773 1.72469C21.8744 1.55411 22.2112 1.46435 22.5539 1.46436H31.7824C32.1246 1.46557 32.4604 1.55621 32.7566 1.72729C33.0528 1.89836 33.299 2.14389 33.4707 2.43949C33.6425 2.73508 33.7338 3.07044 33.7356 3.41221C33.7374 3.75399 33.6496 4.09029 33.481 4.38767Z" fill="#F89728"/>
<path id="Vector_2" d="M23.1417 17.492L21.2165 14.1018L16.1244 5.13328L15.6396 4.27615C15.0561 3.2524 14.2119 2.40112 13.1926 1.80874C12.1732 1.21637 11.0152 0.90401 9.83596 0.903371H5.11006C4.86019 0.902212 4.61061 0.920853 4.36369 0.95912C3.68261 1.05109 3.02815 1.28366 2.44194 1.64204C1.31036 2.33423 0.493186 3.43955 0.163721 4.72358C-0.165745 6.00761 0.0184158 7.36935 0.677145 8.52L12.2355 28.7985L13.6899 31.349C13.8611 31.6496 14.1089 31.8996 14.4082 32.0735C14.7074 32.2474 15.0475 32.339 15.3937 32.339C15.7399 32.339 16.0799 32.2474 16.3792 32.0735C16.6784 31.8996 16.9263 31.6496 17.0974 31.349L18.7471 28.4501L23.1417 20.715C23.4202 20.2234 23.5665 19.6683 23.5665 19.1035C23.5665 18.5387 23.4202 17.9835 23.1417 17.492Z" fill="#037FFF"/>
<path id="Vector_3" d="M31.7844 36.7496H22.5559C22.2126 36.7499 21.8754 36.6603 21.5777 36.4895C21.2801 36.3188 21.0326 36.0729 20.8599 35.7766C20.6872 35.4803 20.5954 35.1438 20.5938 34.801C20.5921 34.4581 20.6806 34.1208 20.8504 33.8228L26.6295 23.6522C26.6836 23.5565 26.7622 23.4769 26.8572 23.4215C26.9521 23.3661 27.0602 23.3369 27.1701 23.3369C27.2801 23.3369 27.3881 23.3661 27.4831 23.4215C27.5781 23.4769 27.6567 23.5565 27.7107 23.6522L30.1173 27.8856L33.4899 33.8089C33.6632 34.1072 33.7545 34.446 33.7546 34.7909C33.7547 35.1358 33.6636 35.4747 33.4905 35.7731C33.3174 36.0716 33.0685 36.3191 32.7689 36.4905C32.4693 36.662 32.1297 36.7514 31.7844 36.7496Z" fill="#F89728"/>
</g>
</g>
<defs>
<clipPath id="clip0_21880_710">
<rect width="34" height="36.1936" fill="white" transform="translate(0 0.90332)"/>
</clipPath>
</defs>
</svg>
