<svg width="36" height="36" viewBox="0 0 36 36" fill="none" xmlns="http://www.w3.org/2000/svg">
<circle cx="18" cy="18" r="17.5" fill="white" stroke="#037FFF"/>
<path d="M24.25 14.25H21.75V12.375C21.75 11.3804 21.3549 10.4266 20.6517 9.72335C19.9484 9.02009 18.9946 8.625 18 8.625C17.0054 8.625 16.0516 9.02009 15.3483 9.72335C14.6451 10.4266 14.25 11.3804 14.25 12.375V14.25H11.75C11.4185 14.25 11.1005 14.3817 10.8661 14.6161C10.6317 14.8505 10.5 15.1685 10.5 15.5V24.25C10.5 24.5815 10.6317 24.8995 10.8661 25.1339C11.1005 25.3683 11.4185 25.5 11.75 25.5H24.25C24.5815 25.5 24.8995 25.3683 25.1339 25.1339C25.3683 24.8995 25.5 24.5815 25.5 24.25V15.5C25.5 15.1685 25.3683 14.8505 25.1339 14.6161C24.8995 14.3817 24.5815 14.25 24.25 14.25ZM15.5 12.375C15.5 11.712 15.7634 11.0761 16.2322 10.6072C16.7011 10.1384 17.337 9.875 18 9.875C18.663 9.875 19.2989 10.1384 19.7678 10.6072C20.2366 11.0761 20.5 11.712 20.5 12.375V14.25H15.5V12.375ZM24.25 24.25H11.75V15.5H24.25V24.25ZM18.9375 19.875C18.9375 20.0604 18.8825 20.2417 18.7795 20.3958C18.6765 20.55 18.5301 20.6702 18.3588 20.7411C18.1875 20.8121 17.999 20.8307 17.8171 20.7945C17.6352 20.7583 17.4682 20.669 17.3371 20.5379C17.206 20.4068 17.1167 20.2398 17.0805 20.0579C17.0443 19.876 17.0629 19.6875 17.1339 19.5162C17.2048 19.3449 17.325 19.1985 17.4792 19.0955C17.6333 18.9925 17.8146 18.9375 18 18.9375C18.2486 18.9375 18.4871 19.0363 18.6629 19.2121C18.8387 19.3879 18.9375 19.6264 18.9375 19.875Z" fill="#037FFF"/>
</svg>
