<svg width="36" height="36" viewBox="0 0 36 36" fill="none" xmlns="http://www.w3.org/2000/svg">
<circle cx="18" cy="18" r="17.5" fill="white" stroke="#037FFF"/>
<path d="M24.4985 23.3562L18.904 18L24.4985 12.6437C24.5017 12.6402 24.5051 12.6368 24.5087 12.6336C24.6834 12.4588 24.8024 12.2361 24.8505 11.9937C24.8987 11.7513 24.874 11.5001 24.7794 11.2717C24.6848 11.0434 24.5247 10.8482 24.3193 10.7108C24.1138 10.5735 23.8722 10.5001 23.6251 10.5H12.3751C12.128 10.5003 11.8866 10.5738 11.6812 10.7112C11.4759 10.8486 11.3159 11.0438 11.2214 11.2721C11.127 11.5004 11.1023 11.7516 11.1505 11.9939C11.1987 12.2362 11.3176 12.4588 11.4923 12.6336L11.5017 12.6437L17.0962 18L11.5017 23.3562L11.4923 23.3664C11.3176 23.5412 11.1987 23.7638 11.1505 24.0061C11.1023 24.2484 11.127 24.4996 11.2214 24.7279C11.3159 24.9562 11.4759 25.1514 11.6812 25.2888C11.8866 25.4262 12.128 25.4997 12.3751 25.5H23.6251C23.8723 25.5 24.114 25.4268 24.3196 25.2895C24.5251 25.1522 24.6854 24.957 24.78 24.7286C24.8747 24.5003 24.8995 24.249 24.8514 24.0065C24.8032 23.764 24.6842 23.5413 24.5095 23.3664C24.5056 23.3632 24.502 23.3599 24.4985 23.3562ZM23.6251 11.75L18.0001 17.1344L12.3751 11.75H23.6251ZM12.3751 24.25L18.0001 18.8656L23.6251 24.25H12.3751Z" fill="#037FFF"/>
</svg>
