<svg width="36" height="36" viewBox="0 0 36 36" fill="none" xmlns="http://www.w3.org/2000/svg">
<circle cx="18" cy="18" r="17.5" fill="white" stroke="#037FFF"/>
<path d="M24.25 11.125H11.75C11.2527 11.125 10.7758 11.3225 10.4242 11.6742C10.0725 12.0258 9.875 12.5027 9.875 13V21.75C9.875 22.2473 10.0725 22.7242 10.4242 23.0758C10.7758 23.4275 11.2527 23.625 11.75 23.625H24.25C24.7473 23.625 25.2242 23.4275 25.5758 23.0758C25.9275 22.7242 26.125 22.2473 26.125 21.75V13C26.125 12.5027 25.9275 12.0258 25.5758 11.6742C25.2242 11.3225 24.7473 11.125 24.25 11.125ZM24.875 21.75C24.875 21.9158 24.8092 22.0747 24.6919 22.1919C24.5747 22.3092 24.4158 22.375 24.25 22.375H11.75C11.5842 22.375 11.4253 22.3092 11.3081 22.1919C11.1908 22.0747 11.125 21.9158 11.125 21.75V13C11.125 12.8342 11.1908 12.6753 11.3081 12.5581C11.4253 12.4408 11.5842 12.375 11.75 12.375H24.25C24.4158 12.375 24.5747 12.4408 24.6919 12.5581C24.8092 12.6753 24.875 12.8342 24.875 13V21.75ZM21.125 25.5C21.125 25.6658 21.0592 25.8247 20.9419 25.9419C20.8247 26.0592 20.6658 26.125 20.5 26.125H15.5C15.3342 26.125 15.1753 26.0592 15.0581 25.9419C14.9408 25.8247 14.875 25.6658 14.875 25.5C14.875 25.3342 14.9408 25.1753 15.0581 25.0581C15.1753 24.9408 15.3342 24.875 15.5 24.875H20.5C20.6658 24.875 20.8247 24.9408 20.9419 25.0581C21.0592 25.1753 21.125 25.3342 21.125 25.5ZM20.8469 16.8547L17.0969 14.3547C17.0027 14.2919 16.8933 14.2558 16.7802 14.2503C16.6672 14.2448 16.5548 14.2702 16.455 14.3236C16.3552 14.377 16.2718 14.4565 16.2137 14.5536C16.1556 14.6507 16.1249 14.7618 16.125 14.875V19.875C16.1249 19.9882 16.1556 20.0993 16.2137 20.1964C16.2718 20.2935 16.3552 20.373 16.455 20.4264C16.5548 20.4798 16.6672 20.5051 16.7802 20.4997C16.8933 20.4942 17.0027 20.4581 17.0969 20.3953L20.8469 17.8953C20.9326 17.8383 21.0029 17.7609 21.0515 17.6701C21.1002 17.5794 21.1256 17.478 21.1256 17.375C21.1256 17.272 21.1002 17.1706 21.0515 17.0799C21.0029 16.9891 20.9326 16.9117 20.8469 16.8547ZM17.375 18.707V16.0469L19.3734 17.375L17.375 18.707Z" fill="#037FFF"/>
</svg>
