<svg width="36" height="36" viewBox="0 0 36 36" fill="none" xmlns="http://www.w3.org/2000/svg">
<circle cx="18" cy="18" r="17.5" fill="white" stroke="#037FFF"/>
<path d="M24.25 10.5H22.375V9.875C22.375 9.70924 22.3092 9.55027 22.1919 9.43306C22.0747 9.31585 21.9158 9.25 21.75 9.25C21.5842 9.25 21.4253 9.31585 21.3081 9.43306C21.1908 9.55027 21.125 9.70924 21.125 9.875V10.5H14.875V9.875C14.875 9.70924 14.8092 9.55027 14.6919 9.43306C14.5747 9.31585 14.4158 9.25 14.25 9.25C14.0842 9.25 13.9253 9.31585 13.8081 9.43306C13.6908 9.55027 13.625 9.70924 13.625 9.875V10.5H11.75C11.4185 10.5 11.1005 10.6317 10.8661 10.8661C10.6317 11.1005 10.5 11.4185 10.5 11.75V24.25C10.5 24.5815 10.6317 24.8995 10.8661 25.1339C11.1005 25.3683 11.4185 25.5 11.75 25.5H24.25C24.5815 25.5 24.8995 25.3683 25.1339 25.1339C25.3683 24.8995 25.5 24.5815 25.5 24.25V11.75C25.5 11.4185 25.3683 11.1005 25.1339 10.8661C24.8995 10.6317 24.5815 10.5 24.25 10.5ZM13.625 11.75V12.375C13.625 12.5408 13.6908 12.6997 13.8081 12.8169C13.9253 12.9342 14.0842 13 14.25 13C14.4158 13 14.5747 12.9342 14.6919 12.8169C14.8092 12.6997 14.875 12.5408 14.875 12.375V11.75H21.125V12.375C21.125 12.5408 21.1908 12.6997 21.3081 12.8169C21.4253 12.9342 21.5842 13 21.75 13C21.9158 13 22.0747 12.9342 22.1919 12.8169C22.3092 12.6997 22.375 12.5408 22.375 12.375V11.75H24.25V14.25H11.75V11.75H13.625ZM24.25 24.25H11.75V15.5H24.25V24.25ZM16.75 17.375V22.375C16.75 22.5408 16.6842 22.6997 16.5669 22.8169C16.4497 22.9342 16.2908 23 16.125 23C15.9592 23 15.8003 22.9342 15.6831 22.8169C15.5658 22.6997 15.5 22.5408 15.5 22.375V18.3859L15.1547 18.5594C15.0063 18.6336 14.8346 18.6458 14.6772 18.5933C14.5199 18.5409 14.3898 18.428 14.3156 18.2797C14.2414 18.1313 14.2292 17.9596 14.2817 17.8022C14.3341 17.6449 14.447 17.5148 14.5953 17.4406L15.8453 16.8156C15.9406 16.7679 16.0466 16.7454 16.1531 16.7502C16.2595 16.755 16.363 16.7869 16.4537 16.843C16.5443 16.899 16.6192 16.9773 16.671 17.0704C16.7229 17.1636 16.7501 17.2684 16.75 17.375ZM21.3719 19.7539L19.875 21.75H21.125C21.2908 21.75 21.4497 21.8158 21.5669 21.9331C21.6842 22.0503 21.75 22.2092 21.75 22.375C21.75 22.5408 21.6842 22.6997 21.5669 22.8169C21.4497 22.9342 21.2908 23 21.125 23H18.625C18.5089 23 18.3952 22.9677 18.2964 22.9067C18.1977 22.8456 18.1179 22.7583 18.066 22.6545C18.0141 22.5507 17.9921 22.4345 18.0025 22.3189C18.0129 22.2033 18.0554 22.0929 18.125 22L20.3734 19.0023C20.4246 18.9343 20.4613 18.8564 20.4813 18.7737C20.5012 18.6909 20.5041 18.6049 20.4897 18.521C20.4752 18.4371 20.4438 18.357 20.3973 18.2856C20.3508 18.2143 20.2902 18.1532 20.2192 18.1062C20.1483 18.0591 20.0684 18.027 19.9846 18.0119C19.9008 17.9968 19.8148 17.999 19.7319 18.0183C19.649 18.0376 19.5709 18.0737 19.5024 18.1243C19.4339 18.1749 19.3764 18.2389 19.3336 18.3125C19.2938 18.3858 19.2397 18.4505 19.1744 18.5026C19.1092 18.5547 19.0343 18.5932 18.9539 18.6158C18.8736 18.6385 18.7895 18.6448 18.7067 18.6344C18.6239 18.624 18.544 18.5972 18.4717 18.5555C18.3995 18.5137 18.3363 18.4579 18.2859 18.3914C18.2356 18.3248 18.1991 18.2488 18.1785 18.1679C18.158 18.087 18.1539 18.0028 18.1664 17.9203C18.179 17.8378 18.2079 17.7586 18.2516 17.6875C18.458 17.3302 18.7766 17.051 19.1578 16.8932C19.5391 16.7354 19.9618 16.7077 20.3603 16.8145C20.7589 16.9213 21.1111 17.1566 21.3624 17.484C21.6136 17.8113 21.7499 18.2124 21.75 18.625C21.7513 19.0326 21.6184 19.4293 21.3719 19.7539Z" fill="#037FFF"/>
</svg>
