<svg width="36" height="36" viewBox="0 0 36 36" fill="none" xmlns="http://www.w3.org/2000/svg">
<circle cx="18" cy="18" r="17.5" fill="white" stroke="#037FFF"/>
<path d="M26.0407 24.5626C24.8508 22.5055 23.0172 21.0305 20.8774 20.3313C21.9358 19.7012 22.7582 18.741 23.2182 17.5983C23.6781 16.4556 23.7503 15.1935 23.4235 14.0058C23.0968 12.8181 22.3892 11.7705 21.4094 11.0239C20.4296 10.2773 19.2318 9.87292 18 9.87292C16.7682 9.87292 15.5704 10.2773 14.5907 11.0239C13.6109 11.7705 12.9033 12.8181 12.5765 14.0058C12.2498 15.1935 12.3219 16.4556 12.7819 17.5983C13.2419 18.741 14.0642 19.7012 15.1227 20.3313C12.9828 21.0297 11.1492 22.5047 9.9594 24.5626C9.91577 24.6337 9.88683 24.7129 9.87429 24.7954C9.86174 24.8779 9.86585 24.9621 9.88638 25.043C9.9069 25.1239 9.94341 25.1998 9.99377 25.2664C10.0441 25.333 10.1073 25.3888 10.1796 25.4305C10.2519 25.4722 10.3318 25.4991 10.4146 25.5095C10.4974 25.5198 10.5814 25.5135 10.6618 25.4909C10.7421 25.4682 10.8171 25.4297 10.8823 25.3776C10.9475 25.3255 11.0016 25.2609 11.0414 25.1876C12.5133 22.6438 15.1149 21.1251 18 21.1251C20.8852 21.1251 23.4867 22.6438 24.9586 25.1876C24.9985 25.2609 25.0526 25.3255 25.1178 25.3776C25.183 25.4297 25.258 25.4682 25.3383 25.4909C25.4186 25.5135 25.5027 25.5198 25.5855 25.5095C25.6683 25.4991 25.7482 25.4722 25.8205 25.4305C25.8927 25.3888 25.9559 25.333 26.0063 25.2664C26.0566 25.1998 26.0932 25.1239 26.1137 25.043C26.1342 24.9621 26.1383 24.8779 26.1258 24.7954C26.1132 24.7129 26.0843 24.6337 26.0407 24.5626ZM13.625 15.5001C13.625 14.6348 13.8816 13.7889 14.3623 13.0694C14.8431 12.35 15.5264 11.7892 16.3258 11.4581C17.1252 11.1269 18.0049 11.0403 18.8535 11.2091C19.7022 11.3779 20.4818 11.7946 21.0936 12.4065C21.7055 13.0183 22.1222 13.7979 22.291 14.6465C22.4598 15.4952 22.3731 16.3749 22.042 17.1743C21.7109 17.9737 21.1501 18.657 20.4306 19.1377C19.7112 19.6185 18.8653 19.8751 18 19.8751C16.8401 19.8738 15.728 19.4125 14.9078 18.5923C14.0876 17.7721 13.6263 16.66 13.625 15.5001Z" fill="#037FFF"/>
</svg>
