<svg width="24" height="24" viewBox="0 0 24 24" fill="none" xmlns="http://www.w3.org/2000/svg">
<g id="Frame">
<g id="Group">
<path id="Vector" d="M12 2C6.483 2 2 6.483 2 12C2 17.162 5.921 21.42 10.95 21.945C11.797 22.034 12.5 21.323 12.5 20.5V16.5C12.5 16.218 12.718 16 13 16H19.5C20.472 16 21.447 15.375 21.697 14.38C21.8928 13.6033 21.9945 12.8059 22 12.005C22 12.0043 22 12.0037 22 12.003C22 12.0023 22 12.0017 22 12.001C22 6.484 17.517 2 12 2ZM9 6C9.823 6 10.5 6.677 10.5 7.5C10.5 8.323 9.823 9 9 9C8.177 9 7.5 8.323 7.5 7.5C7.5 6.677 8.177 6 9 6ZM15 6C15.823 6 16.5 6.677 16.5 7.5C16.5 8.323 15.823 9 15 9C14.177 9 13.5 8.323 13.5 7.5C13.5 6.677 14.177 6 15 6ZM6.5 10C7.323 10 8 10.677 8 11.5C8 12.323 7.323 13 6.5 13C5.677 13 5 12.323 5 11.5C5 10.677 5.677 10 6.5 10ZM17.5 10C18.323 10 19 10.677 19 11.5C19 12.323 18.323 13 17.5 13C16.677 13 16 12.323 16 11.5C16 10.677 16.677 10 17.5 10Z" fill="white"/>
</g>
</g>
</svg>
