<svg width="21" height="20" viewBox="0 0 21 20" fill="none" xmlns="http://www.w3.org/2000/svg">
<path opacity="0.4" d="M1.53906 10.0003C1.53906 14.9479 5.54985 18.9587 10.4974 18.9587C15.445 18.9587 19.4557 14.9479 19.4557 10.0003C19.4557 5.05278 15.445 1.04199 10.4974 1.04199C5.54985 1.04199 1.53906 5.05278 1.53906 10.0003Z" fill="#18F9A8"/>
<path d="M14.5672 6.68365C14.788 7.08744 14.6397 7.59381 14.2359 7.81463C13.0931 8.43958 12.0199 9.74792 11.2004 11.0027C10.801 11.6143 10.4805 12.1839 10.2601 12.6003C10.1501 12.8081 10.0656 12.9767 10.0092 13.0921L9.92727 13.2632C9.79852 13.5447 9.52435 13.7318 9.21535 13.7489C8.90627 13.7659 8.61316 13.6102 8.45425 13.3446C8.19532 12.9117 7.78388 12.5165 7.40258 12.2151C7.2173 12.0686 7.05054 11.9531 6.93153 11.8752L6.75629 11.7656C6.35671 11.5374 6.21758 11.0287 6.44554 10.629C6.67354 10.2292 7.18248 10.0899 7.58226 10.3179L7.84479 10.481C7.99662 10.5804 8.20485 10.7248 8.43625 10.9077C8.61309 11.0475 8.8108 11.2156 9.01044 11.4092C9.22444 11.0247 9.49194 10.5708 9.80502 10.0913C10.6523 8.79408 11.9124 7.18572 13.4363 6.35235C13.84 6.13152 14.3464 6.27985 14.5672 6.68365Z" fill="#18F9A8"/>
</svg>
